<svg width="27" height="27" viewBox="0 0 27 27" fill="none" xmlns="http://www.w3.org/2000/svg">
<path fill-rule="evenodd" clip-rule="evenodd" d="M3.33307 13.3333C3.33307 12.8731 3.70616 12.5 4.1664 12.5H22.4997C22.96 12.5 23.3331 12.8731 23.3331 13.3333C23.3331 13.7936 22.96 14.1667 22.4997 14.1667H4.1664C3.70616 14.1667 3.33307 13.7936 3.33307 13.3333Z" fill="#121112"/>
<path fill-rule="evenodd" clip-rule="evenodd" d="M12.2557 5.24408C12.5811 5.56951 12.5811 6.09715 12.2557 6.42259L5.34491 13.3333L12.2557 20.2441C12.5811 20.5695 12.5811 21.0972 12.2557 21.4226C11.9302 21.748 11.4026 21.748 11.0771 21.4226L3.57715 13.9226C3.25171 13.5972 3.25171 13.0695 3.57715 12.7441L11.0771 5.24408C11.4026 4.91864 11.9302 4.91864 12.2557 5.24408Z" fill="#121112"/>
</svg>
