<svg width="27" height="27" viewBox="0 0 27 27" fill="none" xmlns="http://www.w3.org/2000/svg">
<path fill-rule="evenodd" clip-rule="evenodd" d="M3.33307 13.3333C3.33307 12.8731 3.70616 12.5 4.1664 12.5H22.4997C22.96 12.5 23.3331 12.8731 23.3331 13.3333C23.3331 13.7936 22.96 14.1667 22.4997 14.1667H4.1664C3.70616 14.1667 3.33307 13.7936 3.33307 13.3333Z" fill="white"/>
<path fill-rule="evenodd" clip-rule="evenodd" d="M14.4102 5.24408C14.7357 4.91864 15.2633 4.91864 15.5887 5.24408L23.0887 12.7441C23.4142 13.0695 23.4142 13.5972 23.0887 13.9226L15.5887 21.4226C15.2633 21.748 14.7357 21.748 14.4102 21.4226C14.0848 21.0972 14.0848 20.5695 14.4102 20.2441L21.321 13.3333L14.4102 6.42259C14.0848 6.09715 14.0848 5.56951 14.4102 5.24408Z" fill="white"/>
</svg>
