<?xml version="1.0" encoding="utf-8"?>
<!-- Generator: Adobe Illustrator 27.3.1, SVG Export Plug-In . SVG Version: 6.00 Build 0)  -->
<svg version="1.1" id="Layer_1" xmlns="http://www.w3.org/2000/svg" xmlns:xlink="http://www.w3.org/1999/xlink" x="0px" y="0px"
	 viewBox="0 0 20 20" style="enable-background:new 0 0 20 20;" xml:space="preserve">
<style type="text/css">
	.st0{fill:#9F375E;}
	.st1{fill-rule:evenodd;clip-rule:evenodd;fill:#FFFFFF;}
	.st2{fill-rule:evenodd;clip-rule:evenodd;fill:#9F375E;}
</style>
<circle class="st0" cx="10" cy="10" r="7"/>
<path class="st1" d="M13.9,7.7c0.2,0.2,0.2,0.6,0,0.9L9.3,13c-0.2,0.2-0.6,0.2-0.9,0l-2.3-2.2c-0.2-0.2-0.3-0.6,0-0.9
	c0.2-0.2,0.6-0.3,0.9,0l1.9,1.8l4.2-4C13.3,7.4,13.7,7.4,13.9,7.7z"/>
<path class="st2" d="M10,3.1c-3.8,0-6.9,3.1-6.9,6.9c0,3.8,3.1,6.9,6.9,6.9c3.8,0,6.9-3.1,6.9-6.9C16.9,6.2,13.8,3.1,10,3.1z
	 M1.9,10c0-4.5,3.6-8.1,8.1-8.1c4.5,0,8.1,3.6,8.1,8.1c0,4.5-3.6,8.1-8.1,8.1C5.5,18.1,1.9,14.5,1.9,10z"/>
</svg>
